<?xml version="1.0" encoding="UTF-8" standalone="no"?>
<!-- Created with Inkscape (http://www.inkscape.org/) -->
<svg
   xmlns:svg="http://www.w3.org/2000/svg"
   xmlns="http://www.w3.org/2000/svg"
   version="1.0"
   width="508.1109"
   height="950"
   id="svg2">
  <defs
     id="defs4" />
  <g
     transform="translate(-38.382835,-263.96217)"
     id="layer1">
    <path
       d="M 390.00001,373.07648 A 117.14286,117.14286 0 1 1 155.71429,373.07648 A 117.14286,117.14286 0 1 1 390.00001,373.07648 z"
       transform="matrix(1.0447761,0,0,1.0447761,36.448685,-0.8192052)"
       id="path2400"
       style="fill:none;fill-opacity:1;fill-rule:nonzero;stroke:#000000;stroke-width:5;stroke-miterlimit:4;stroke-dasharray:none;stroke-opacity:1" />
    <path
       d="M 132.74237,285.94455 A 101.73685,101.73685 0 0 1 132.74237,489.41824 L 132.74237,387.6814 z"
       transform="matrix(1.2286601,0,0,1.2286601,158.35375,-87.366485)"
       id="path3252"
       style="fill:#000000;fill-opacity:1;fill-rule:nonzero;stroke:none;stroke-width:5;stroke-miterlimit:4;stroke-dasharray:none;stroke-opacity:1" />
    <rect
       width="100"
       height="5"
       x="446.49371"
       y="386.46042"
       id="rect3268"
       style="fill:#000000;fill-opacity:1;fill-rule:nonzero;stroke:none;stroke-width:5;stroke-miterlimit:4;stroke-dasharray:none;stroke-opacity:1" />
    <rect
       width="146.34062"
       height="5"
       x="104"
       y="286.89398"
       id="rect3294"
       style="fill:#000000;fill-opacity:1;fill-rule:nonzero;stroke:none;stroke-width:5;stroke-miterlimit:4;stroke-dasharray:none;stroke-opacity:1" />
    <rect
       width="146.34062"
       height="5"
       x="104"
       y="485.86218"
       id="rect3296"
       style="fill:#000000;fill-opacity:1;fill-rule:nonzero;stroke:none;stroke-width:5;stroke-miterlimit:4;stroke-dasharray:none;stroke-opacity:1" />
    <path
       d="M 249.66434,433.71143 L 299.23465,433.71143 L 299.23465,445.66455 L 232.5784,445.66455 L 232.5784,433.71143 C 237.96901,428.13332 245.30494,420.65676 254.58621,411.28174 C 263.9143,401.85991 269.77366,395.7896 272.16434,393.0708 C 276.71116,387.96148 279.87522,383.64899 281.65652,380.1333 C 283.48459,376.57087 284.39865,373.07869 284.39871,369.65674 C 284.39865,364.07869 282.4299,359.53182 278.49246,356.01611 C 274.60178,352.50058 269.51585,350.74277 263.23465,350.74268 C 258.78149,350.74277 254.07056,351.51621 249.10184,353.06299 C 244.17994,354.60995 238.90651,356.9537 233.28152,360.09424 L 233.28152,345.75049 C 239.00026,343.45372 244.344,341.71934 249.31277,340.54736 C 254.28149,339.37559 258.82836,338.78966 262.9534,338.78955 C 273.82835,338.78966 282.50021,341.5084 288.96902,346.9458 C 295.4377,352.38339 298.67207,359.64901 298.67215,368.74268 C 298.67207,373.05525 297.85176,377.15681 296.21121,381.04736 C 294.61739,384.89117 291.68771,389.43804 287.42215,394.68799 C 286.25021,396.04741 282.52365,399.98491 276.24246,406.50049 C 269.96116,412.96927 261.1018,422.03957 249.66434,433.71143"
       id="text3298"
       style="font-size:144px;font-style:normal;font-weight:normal;text-align:start;text-anchor:start;fill:#000000;fill-opacity:1;stroke:none;stroke-width:1px;stroke-linecap:butt;stroke-linejoin:miter;stroke-opacity:1;font-family:Bitstream Vera Sans" />
    <path
       d="M 67.503929,266.54712 L 56.42971,281.44946 L 68.078148,297.17212 L 62.144554,297.17212 L 53.230492,285.14087 L 44.316429,297.17212 L 38.382835,297.17212 L 50.277367,281.14868 L 39.394554,266.54712 L 45.328148,266.54712 L 53.449242,277.45728 L 61.570335,266.54712 L 67.503929,266.54712 M 73.878929,294.51587 L 79.035179,294.51587 L 79.035179,276.71899 L 73.425804,277.84399 L 73.425804,274.96899 L 79.003929,273.84399 L 82.160179,273.84399 L 82.160179,294.51587 L 87.316429,294.51587 L 87.316429,297.17212 L 73.878929,297.17212 L 73.878929,294.51587 M 67.503929,476.54712 L 56.42971,491.44946 L 68.078148,507.17212 L 62.144554,507.17212 L 53.230492,495.14087 L 44.316429,507.17212 L 38.382835,507.17212 L 50.277367,491.14868 L 39.394554,476.54712 L 45.328148,476.54712 L 53.449242,487.45728 L 61.570335,476.54712 L 67.503929,476.54712 M 76.050804,504.51587 L 87.066429,504.51587 L 87.066429,507.17212 L 72.253929,507.17212 L 72.253929,504.51587 C 73.451842,503.27629 75.082049,501.61483 77.144554,499.53149 C 79.217461,497.43775 80.519544,496.0888 81.050804,495.48462 C 82.061209,494.34922 82.764333,493.39088 83.160179,492.60962 C 83.566415,491.81797 83.76954,491.04193 83.769554,490.28149 C 83.76954,489.04193 83.332041,488.03151 82.457054,487.25024 C 81.592459,486.46901 80.462252,486.07839 79.066429,486.07837 C 78.076838,486.07839 77.029964,486.25027 75.925804,486.59399 C 74.832049,486.93776 73.660175,487.4586 72.410179,488.15649 L 72.410179,484.96899 C 73.681009,484.4586 74.868508,484.07318 75.972679,483.81274 C 77.076839,483.55235 78.087254,483.42214 79.003929,483.42212 C 81.420584,483.42214 83.347666,484.02631 84.785179,485.23462 C 86.222663,486.44297 86.941412,488.05755 86.941429,490.07837 C 86.941412,491.03672 86.759121,491.94818 86.394554,492.81274 C 86.040371,493.66692 85.38933,494.67734 84.441429,495.84399 C 84.180998,496.14609 83.352874,497.02109 81.957054,498.46899 C 80.56121,499.9065 78.592462,501.92212 76.050804,504.51587"
       id="text3308"
       style="font-size:144px;font-style:normal;font-weight:normal;text-align:start;text-anchor:start;fill:#000000;fill-opacity:1;stroke:none;stroke-width:1px;stroke-linecap:butt;stroke-linejoin:miter;stroke-opacity:1;font-family:Bitstream Vera Sans" />
    <path
       d="M 390.00001,373.07648 A 117.14286,117.14286 0 1 1 155.71429,373.07648 A 117.14286,117.14286 0 1 1 390.00001,373.07648 z"
       transform="matrix(1.0447761,0,0,1.0447761,36.448692,349.18078)"
       id="path2401"
       style="fill:none;fill-opacity:1;fill-rule:nonzero;stroke:#000000;stroke-width:5;stroke-miterlimit:4;stroke-dasharray:none;stroke-opacity:1" />
    <path
       d="M 132.74237,285.94455 A 101.73685,101.73685 0 0 1 132.74237,489.41824 L 132.74237,387.6814 z"
       transform="matrix(1.2286601,0,0,1.2286601,158.35374,262.6335)"
       id="path2403"
       style="fill:#000000;fill-opacity:1;fill-rule:nonzero;stroke:none;stroke-width:5;stroke-miterlimit:4;stroke-dasharray:none;stroke-opacity:1" />
    <rect
       width="100"
       height="5"
       x="446.49374"
       y="736.46039"
       id="rect2405"
       style="fill:#000000;fill-opacity:1;fill-rule:nonzero;stroke:none;stroke-width:5;stroke-miterlimit:4;stroke-dasharray:none;stroke-opacity:1" />
    <rect
       width="146.34062"
       height="5"
       x="104"
       y="636.89398"
       id="rect2411"
       style="fill:#000000;fill-opacity:1;fill-rule:nonzero;stroke:none;stroke-width:5;stroke-miterlimit:4;stroke-dasharray:none;stroke-opacity:1" />
    <rect
       width="146.34062"
       height="5"
       x="104"
       y="835.86218"
       id="rect2413"
       style="fill:#000000;fill-opacity:1;fill-rule:nonzero;stroke:none;stroke-width:5;stroke-miterlimit:4;stroke-dasharray:none;stroke-opacity:1" />
    <path
       d="M 239.8909,783.71143 L 263.09402,783.71143 L 263.09402,703.62549 L 237.85184,708.68799 L 237.85184,695.75049 L 262.9534,690.68799 L 277.15652,690.68799 L 277.15652,783.71143 L 300.35965,783.71143 L 300.35965,795.66455 L 239.8909,795.66455 L 239.8909,783.71143"
       id="text2415"
       style="font-size:144px;font-style:normal;font-weight:normal;text-align:start;text-anchor:start;fill:#000000;fill-opacity:1;stroke:none;stroke-width:1px;stroke-linecap:butt;stroke-linejoin:miter;stroke-opacity:1;font-family:Bitstream Vera Sans" />
    <path
       d="M 67.503929,616.54712 L 56.42971,631.44946 L 68.078148,647.17212 L 62.144554,647.17212 L 53.230492,635.14087 L 44.316429,647.17212 L 38.382835,647.17212 L 50.277367,631.14868 L 39.394554,616.54712 L 45.328148,616.54712 L 53.449242,627.45728 L 61.570335,616.54712 L 67.503929,616.54712 M 73.878929,644.51587 L 79.035179,644.51587 L 79.035179,626.71899 L 73.425804,627.84399 L 73.425804,624.96899 L 79.003929,623.84399 L 82.160179,623.84399 L 82.160179,644.51587 L 87.316429,644.51587 L 87.316429,647.17212 L 73.878929,647.17212 L 73.878929,644.51587 M 67.503929,826.54712 L 56.42971,841.44946 L 68.078148,857.17212 L 62.144554,857.17212 L 53.230492,845.14087 L 44.316429,857.17212 L 38.382835,857.17212 L 50.277367,841.14868 L 39.394554,826.54712 L 45.328148,826.54712 L 53.449242,837.45728 L 61.570335,826.54712 L 67.503929,826.54712 M 76.050804,854.51587 L 87.066429,854.51587 L 87.066429,857.17212 L 72.253929,857.17212 L 72.253929,854.51587 C 73.451842,853.27629 75.082049,851.61483 77.144554,849.53149 C 79.217461,847.43775 80.519544,846.0888 81.050804,845.48462 C 82.061209,844.34922 82.764333,843.39088 83.160179,842.60962 C 83.566415,841.81797 83.76954,841.04193 83.769554,840.28149 C 83.76954,839.04193 83.332041,838.03151 82.457054,837.25024 C 81.592459,836.46901 80.462252,836.07839 79.066429,836.07837 C 78.076838,836.07839 77.029964,836.25027 75.925804,836.59399 C 74.832049,836.93776 73.660175,837.4586 72.410179,838.15649 L 72.410179,834.96899 C 73.681009,834.4586 74.868508,834.07318 75.972679,833.81274 C 77.076839,833.55235 78.087254,833.42214 79.003929,833.42212 C 81.420584,833.42214 83.347666,834.02631 84.785179,835.23462 C 86.222663,836.44297 86.941412,838.05755 86.941429,840.07837 C 86.941412,841.03672 86.759121,841.94818 86.394554,842.81274 C 86.040371,843.66692 85.38933,844.67734 84.441429,845.84399 C 84.180998,846.14609 83.352874,847.02109 81.957054,848.46899 C 80.56121,849.9065 78.592462,851.92212 76.050804,854.51587"
       id="text2419"
       style="font-size:144px;font-style:normal;font-weight:normal;text-align:start;text-anchor:start;fill:#000000;fill-opacity:1;stroke:none;stroke-width:1px;stroke-linecap:butt;stroke-linejoin:miter;stroke-opacity:1;font-family:Bitstream Vera Sans" />
    <path
       d="M 390.00001,373.07648 A 117.14286,117.14286 0 1 1 155.71429,373.07648 A 117.14286,117.14286 0 1 1 390.00001,373.07648 z"
       transform="matrix(1.0447761,0,0,1.0447761,36.448682,699.18078)"
       id="path2437"
       style="fill:none;fill-opacity:1;fill-rule:nonzero;stroke:#000000;stroke-width:5;stroke-miterlimit:4;stroke-dasharray:none;stroke-opacity:1" />
    <path
       d="M 132.74237,285.94455 A 101.73685,101.73685 0 0 1 132.74237,489.41824 L 132.74237,387.6814 z"
       transform="matrix(1.2286601,0,0,1.2286601,158.35372,612.63348)"
       id="path2439"
       style="fill:#000000;fill-opacity:1;fill-rule:nonzero;stroke:none;stroke-width:5;stroke-miterlimit:4;stroke-dasharray:none;stroke-opacity:1" />
    <rect
       width="100"
       height="5"
       x="446.49374"
       y="1086.4604"
       id="rect2441"
       style="fill:#000000;fill-opacity:1;fill-rule:nonzero;stroke:none;stroke-width:5;stroke-miterlimit:4;stroke-dasharray:none;stroke-opacity:1" />
    <rect
       width="96.110916"
       height="5"
       x="103.99999"
       y="1085.5459"
       id="rect2445"
       style="fill:#000000;fill-opacity:1;fill-rule:nonzero;stroke:none;stroke-width:5;stroke-miterlimit:4;stroke-dasharray:none;stroke-opacity:1" />
    <path
       d="M 267.80495,1050.0396 C 260.49241,1050.0396 254.9846,1053.649 251.28151,1060.8677 C 247.62523,1068.0396 245.79711,1078.8443 245.79713,1093.2817 C 245.79711,1107.6724 247.62523,1118.4771 251.28151,1125.6958 C 254.9846,1132.8677 260.49241,1136.4536 267.80495,1136.4536 C 275.16427,1136.4536 280.67208,1132.8677 284.32838,1125.6958 C 288.03144,1118.4771 289.883,1107.6724 289.88307,1093.2817 C 289.883,1078.8443 288.03144,1068.0396 284.32838,1060.8677 C 280.67208,1053.649 275.16427,1050.0396 267.80495,1050.0396 M 267.80495,1038.7896 C 279.57051,1038.7897 288.54707,1043.4537 294.73463,1052.7817 C 300.96893,1062.0631 304.08611,1075.5631 304.0862,1093.2817 C 304.08611,1110.9536 300.96893,1124.4536 294.73463,1133.7817 C 288.54707,1143.063 279.57051,1147.7036 267.80495,1147.7036 C 256.03929,1147.7036 247.0393,1143.063 240.80495,1133.7817 C 234.61743,1124.4536 231.52369,1110.9536 231.5237,1093.2817 C 231.52369,1075.5631 234.61743,1062.0631 240.80495,1052.7817 C 247.0393,1043.4537 256.03929,1038.7897 267.80495,1038.7896"
       id="text2451"
       style="font-size:144px;font-style:normal;font-weight:normal;text-align:start;text-anchor:start;fill:#000000;fill-opacity:1;stroke:none;stroke-width:1px;stroke-linecap:butt;stroke-linejoin:miter;stroke-opacity:1;font-family:Bitstream Vera Sans" />
    <path
       d="M 54.789085,1102.0161 C 53.367194,1105.6619 51.981779,1108.0408 50.632835,1109.1528 C 49.283865,1110.2648 47.479179,1110.8208 45.218773,1110.8208 L 41.199242,1110.8208 L 41.199242,1106.6099 L 44.152367,1106.6099 C 45.537775,1106.6099 46.613294,1106.2817 47.378929,1105.6255 C 48.144543,1104.9692 48.992198,1103.4198 49.921898,1100.9771 L 50.824242,1098.6802 L 38.437523,1068.5474 L 43.769554,1068.5474 L 53.339867,1092.5005 L 62.910179,1068.5474 L 68.24221,1068.5474 L 54.789085,1102.0161 M 73.878929,1096.5161 L 79.035179,1096.5161 L 79.035179,1078.7192 L 73.425804,1079.8442 L 73.425804,1076.9692 L 79.003929,1075.8442 L 82.160179,1075.8442 L 82.160179,1096.5161 L 87.316429,1096.5161 L 87.316429,1099.1724 L 73.878929,1099.1724 L 73.878929,1096.5161"
       id="text2455"
       style="font-size:144px;font-style:normal;font-weight:normal;text-align:start;text-anchor:start;fill:#000000;fill-opacity:1;stroke:none;stroke-width:1px;stroke-linecap:butt;stroke-linejoin:miter;stroke-opacity:1;font-family:Bitstream Vera Sans" />
    <path
       d="M 469.17191,303.00903 L 463.82034,317.52075 L 474.543,317.52075 L 469.17191,303.00903 M 466.94534,299.12231 L 471.418,299.12231 L 482.53128,328.28247 L 478.42972,328.28247 L 475.77347,320.802 L 462.62894,320.802 L 459.97269,328.28247 L 455.81253,328.28247 L 466.94534,299.12231 M 486.76956,299.12231 L 492.08206,299.12231 L 505.01175,323.51685 L 505.01175,299.12231 L 508.83987,299.12231 L 508.83987,328.28247 L 503.52737,328.28247 L 490.59769,303.88794 L 490.59769,328.28247 L 486.76956,328.28247 L 486.76956,299.12231 M 520.63675,302.3645 L 520.63675,325.04028 L 525.40237,325.04028 C 529.4258,325.04029 532.3685,324.12883 534.2305,322.30591 C 536.10548,320.483 537.04297,317.6054 537.043,313.6731 C 537.04297,309.76686 536.10548,306.90879 534.2305,305.09888 C 532.3685,303.27599 529.4258,302.36453 525.40237,302.3645 L 520.63675,302.3645 M 516.69144,299.12231 L 524.79691,299.12231 C 530.44793,299.12234 534.59506,300.30073 537.23831,302.65747 C 539.88151,305.00124 541.20313,308.67312 541.20316,313.6731 C 541.20313,318.69915 539.875,322.39055 537.21878,324.74731 C 534.56251,327.10409 530.42189,328.28247 524.79691,328.28247 L 516.69144,328.28247 L 516.69144,299.12231"
       id="text2501"
       style="font-size:144px;font-style:normal;font-weight:normal;text-align:start;text-anchor:start;fill:#000000;fill-opacity:1;stroke:none;stroke-width:1px;stroke-linecap:butt;stroke-linejoin:miter;stroke-opacity:1;font-family:Bitstream Vera Sans" />
    <path
       d="M 471.26175,648.66931 C 468.39715,648.66934 466.11851,649.73705 464.42581,651.87244 C 462.74612,654.00787 461.90627,656.91803 461.90628,660.60291 C 461.90627,664.27479 462.74612,667.17843 464.42581,669.31384 C 466.11851,671.44926 468.39715,672.51697 471.26175,672.51697 C 474.12631,672.51697 476.39194,671.44926 478.05862,669.31384 C 479.73829,667.17843 480.57813,664.27479 480.57816,660.60291 C 480.57813,656.91803 479.73829,654.00787 478.05862,651.87244 C 476.39194,649.73705 474.12631,648.66934 471.26175,648.66931 M 471.26175,645.46619 C 475.35027,645.46622 478.6185,646.83991 481.06644,649.58728 C 483.51433,652.32168 484.73828,655.99355 484.73831,660.60291 C 484.73828,665.19927 483.51433,668.87114 481.06644,671.61853 C 478.6185,674.35291 475.35027,675.72009 471.26175,675.72009 C 467.16018,675.72009 463.87893,674.35291 461.418,671.61853 C 458.97008,668.88416 457.74612,665.21229 457.74612,660.60291 C 457.74612,655.99355 458.97008,652.32168 461.418,649.58728 C 463.87893,646.83991 467.16018,645.46622 471.26175,645.46619 M 504.73831,661.48181 C 505.58465,661.76828 506.40496,662.38026 507.19925,663.31775 C 508.00652,664.25526 508.81381,665.54432 509.62112,667.18494 L 513.62503,675.15369 L 509.38675,675.15369 L 505.65628,667.67322 C 504.69272,665.7201 503.75522,664.42453 502.84378,663.7865 C 501.94533,663.14849 500.71486,662.82948 499.15237,662.82947 L 494.8555,662.82947 L 494.8555,675.15369 L 490.91019,675.15369 L 490.91019,645.99353 L 499.81644,645.99353 C 503.14975,645.99356 505.63673,646.69017 507.27737,648.08337 C 508.91798,649.47663 509.73829,651.57949 509.73831,654.39197 C 509.73829,656.22792 509.3086,657.75136 508.44925,658.96228 C 507.60287,660.17323 506.3659,661.01308 504.73831,661.48181 M 494.8555,649.23572 L 494.8555,659.58728 L 499.81644,659.58728 C 501.71746,659.5873 503.14975,659.1511 504.11331,658.27869 C 505.08986,657.39329 505.57814,656.09772 505.57816,654.39197 C 505.57814,652.68626 505.08986,651.40371 504.11331,650.54431 C 503.14975,649.67194 501.71746,649.23574 499.81644,649.23572 L 494.8555,649.23572"
       id="text2505"
       style="font-size:144px;font-style:normal;font-weight:normal;text-align:start;text-anchor:start;fill:#000000;fill-opacity:1;stroke:none;stroke-width:1px;stroke-linecap:butt;stroke-linejoin:miter;stroke-opacity:1;font-family:Bitstream Vera Sans" />
    <path
       d="M 459.42581,996.98132 L 464.73831,996.98132 L 477.668,1021.3759 L 477.668,996.98132 L 481.49612,996.98132 L 481.49612,1026.1415 L 476.18362,1026.1415 L 463.25394,1001.7469 L 463.25394,1026.1415 L 459.42581,1026.1415 L 459.42581,996.98132 M 501.18362,999.6571 C 498.31903,999.65713 496.04038,1000.7248 494.34769,1002.8602 C 492.66799,1004.9957 491.82815,1007.9058 491.82816,1011.5907 C 491.82815,1015.2626 492.66799,1018.1662 494.34769,1020.3016 C 496.04038,1022.4371 498.31903,1023.5048 501.18362,1023.5048 C 504.04819,1023.5048 506.31381,1022.4371 507.9805,1020.3016 C 509.66016,1018.1662 510.50001,1015.2626 510.50003,1011.5907 C 510.50001,1007.9058 509.66016,1004.9957 507.9805,1002.8602 C 506.31381,1000.7248 504.04819,999.65713 501.18362,999.6571 M 501.18362,996.45398 C 505.27215,996.45401 508.54037,997.82771 510.98831,1000.5751 C 513.4362,1003.3095 514.66016,1006.9813 514.66019,1011.5907 C 514.66016,1016.1871 513.4362,1019.8589 510.98831,1022.6063 C 508.54037,1025.3407 505.27215,1026.7079 501.18362,1026.7079 C 497.08205,1026.7079 493.8008,1025.3407 491.33987,1022.6063 C 488.89195,1019.872 487.668,1016.2001 487.668,1011.5907 C 487.668,1006.9813 488.89195,1003.3095 491.33987,1000.5751 C 493.8008,997.82771 497.08205,996.45401 501.18362,996.45398 M 516.78909,996.98132 L 541.45706,996.98132 L 541.45706,1000.3016 L 531.1055,1000.3016 L 531.1055,1026.1415 L 527.14066,1026.1415 L 527.14066,1000.3016 L 516.78909,1000.3016 L 516.78909,996.98132"
       id="text2509"
       style="font-size:144px;font-style:normal;font-weight:normal;text-align:start;text-anchor:start;fill:#000000;fill-opacity:1;stroke:none;stroke-width:1px;stroke-linecap:butt;stroke-linejoin:miter;stroke-opacity:1;font-family:Bitstream Vera Sans" />
  </g>
</svg>
